<svg version="1.1" xmlns="http://www.w3.org/2000/svg" width="1024" height="922"><path d=" M 0.0,461.0 L 0.0,0.0 L 192.64673601340593,-5.684341886080802e-14 L 385.29347202681186,-1.1368683772161603e-13 L 384.65378793520784,7.749999999999943 C 384.13697397048776,14.01138476656085 383.12220868710386,17.457418940640736 379.37073643233146,25.690676844625955 L 374.7273690210591,35.88135368925191 L 377.97899560440135,43.94789291553576 C 379.7673902252396,48.38448948999188 382.6992818280359,53.937877356373846 384.4943102772821,56.28875484082903 C 389.12005966381685,62.346915136897536 395.25261051066747,74.9908716581881 398.6201126364085,85.41301900389936 C 400.9724663471313,92.69336392038167 402.04953571400534,94.66184882966357 404.5,96.15928094346117 C 406.15,97.16756455807551 407.7882672901521,97.9942060063208 408.1405939781157,97.9962619395618 C 408.9558924206871,98.00101945361534 410.1293225812491,91.54436720657519 410.12358702703557,87.08509146219649 C 410.11545363913035,80.7615492106073 412.25072356437784,78.3566562658239 420.12526461745847,75.8204903975705 C 427.77481033079164,73.35678913358255 427.59915968725835,73.55980214059089 430.36057258908266,63.9907549227774 C 431.6360700249529,59.5708091834136 432.5979159478299,58.1327483361794 435.2252087193797,56.71761211618684 C 438.0985977758596,55.1699212870615 438.51113898607895,54.43561422923056 438.59087606468654,50.726857193409444 C 438.739668345661,43.806182037299074 439.95052661540916,39.0 441.5453130586659,39.0 C 442.3453908763996,39.0 443.0,38.325 443.0,37.5 C 443.0,36.675 443.394899878051,36.0 443.8775552845578,36.0 C 444.3602106910646,36.0 445.3153108130135,36.675 445.99999999999994,37.5 C 446.68468918698636,38.325 448.5091469141482,38.99999999999997 450.054350504804,38.99999999999994 C 452.95953536877715,38.999999999999886 456.02586608712346,42.206559196210925 457.4216670027756,46.70423631300548 C 457.7978992758494,47.916566285158495 459.9736478199844,49.941566285158494 462.2566637675201,51.20423631300548 C 465.71986593196146,53.11963317133016 466.7881753663912,54.497908507111326 468.70461301328965,59.523033400627185 C 470.5331119925742,64.31757276560046 471.73348813984006,65.94020156832534 474.58979065230835,67.4784220244145 C 478.88311696300985,69.79053088786954 482.0000000000001,73.50597431912922 482.0000000000001,76.31167412864693 C 482.0000000000001,77.43475033840599 483.658518171253,80.76172532802855 485.6855959361176,83.70495188336372 L 489.3711918722351,89.05627289306403 L 487.13984659021094,93.64905376725483 C 485.91260668509767,96.17508324805976 485.0415885138448,98.35828659642344 485.20425065409336,98.50061676361855 C 485.366912794342,98.64294693081366 487.75,99.89281708381006 490.5,101.27810599249943 C 494.906212158954,103.49769756818354 495.7313403325707,104.4323553234207 497.44800496557156,109.14840654960369 C 498.6289462945455,112.39270930710987 499.2822804552231,116.3645030591943 499.1071869792342,119.23501942256638 C 498.53292175926777,128.64963468175495 505.44396942512145,134.99442952566878 522.0,140.25212262306871 C 527.0788679508174,141.86501702108563 528.0000000000001,142.84781991852742 528.0000000000001,146.653829511764 C 528.0000000000001,148.66301849567162 528.5783233499728,150.28469308470773 529.4084430094003,150.6032398866996 C 531.0387237307149,151.22883729814018 532.5834329059472,154.8980391364907 533.4696638183868,160.25000000000006 C 534.072664805669,163.8915313879175 534.2122465324665,163.99983246584696 538.2953130586641,163.99420797351183 C 540.6078908763989,163.99102235894327 544.975,163.54637108379103 548.0,163.00609402872908 C 551.025,162.46581697366713 554.2184800238788,161.90592338558682 555.0966222752861,161.7618860552173 C 557.3065651839993,161.39940004986917 564.0000000000001,169.6107338578438 564.0000000000001,172.68432102707123 C 564.0000000000001,174.056622613569 564.9909740338036,175.9818569110872 566.2021645195632,176.96261946600055 C 567.413355005323,177.9433820209139 568.9076433666407,180.24068288507507 569.5228053224916,182.06773249746982 C 571.070998897579,186.6659142354208 574.6481112435833,189.00497829416483 581.1596404041388,189.67702738791883 C 586.0969069197905,190.18659824380404 586.7579888442942,190.03345403939647 587.2182233166568,188.27351471334146 C 587.5870890830874,186.8629698555344 588.9255651333137,186.10761260906594 591.8985503734034,185.6322130945652 C 594.9973250903572,185.1366990314202 596.2885617686995,184.37122435385962 596.9470117987325,182.63936953106622 C 598.3697452996201,178.89729684114798 603.2216099463943,177.42240525463168 609.1286613413349,178.93633704185214 C 614.4398297832169,180.297548616604 616.3489841387533,179.6265298498414 617.5021340337191,175.99327625513786 C 617.8209063225885,174.9889137091388 619.4956800640759,173.67425340692634 621.2238534592468,173.0718089168879 C 624.0160337505388,172.09844962528953 624.6579799386442,172.2562023789599 626.9877123136209,174.48822764931816 C 628.4501709336403,175.88935192942742 630.790541907365,177.0000000000001 632.2805492237944,177.0000000000001 C 633.7496605496549,177.0000000000001 636.3583384393173,177.85545179069263 638.0776112008218,178.90100397931678 C 640.5222714791447,180.38769065386535 641.8882663987255,180.6056372280314 644.3451789513476,179.90100397931684 C 652.6245140065624,177.52652192828648 655.3909858235943,179.38988287845768 660.0272181614787,190.46366335770256 C 661.7949616667363,194.68597192513025 663.1605938300978,196.5879285878817 664.5714782982413,196.7925900454842 C 665.9876948101878,196.998024963906 666.9698555296889,198.37668261493536 667.868707724411,201.42090645575308 C 669.0502493329763,205.42254004449222 669.451684737411,205.79724542313778 673.0783805804576,206.28368741273692 C 678.4886185467265,207.00935260066893 692.2797222439173,213.6387542988897 695.609735847454,217.1145395439312 C 697.150560861116,218.72281430953262 699.9152977641683,220.25352024136714 701.9251607588743,220.61109589375758 C 707.4775023392872,221.59891554521647 713.0000000000001,227.74351180886018 712.9999999999998,232.93349420015898 C 712.9999999999998,234.3725947750634 714.4833977519094,235.71800278207095 718.0790017477884,237.54003321525687 C 724.0271397111887,240.55418282754042 725.1890938230399,240.062112736854 728.2093100692967,233.24999999999994 C 730.228087828801,228.6966367415112 731.5513597307673,228.19951871028678 735.802020465705,230.39762080392478 C 740.4286300424874,232.79013359930786 742.4263095615704,235.8305852096692 742.9800599954951,241.3225372577936 C 743.3386630287894,244.87906839982136 743.9654488108611,246.53931059198186 745.0,246.67299305471323 C 752.9097930738636,247.69507937476246 754.041203920574,248.17899945000556 755.6088847342694,251.21055985794828 C 757.5473997556817,254.95923454846996 757.0465046944562,261.75388664741644 754.5508571654486,265.5627262052121 C 753.6169188017333,266.9880963117339 751.3510971880601,269.04032713350665 749.5156980239526,270.12323914248486 C 745.4555836695829,272.51876523738207 744.4571016566118,274.7426227398967 746.4519593354221,276.94691566316607 C 747.2770582536166,277.8586397052834 748.3940092686973,281.7247621646397 748.9340727022682,285.53829890618005 C 749.4741361358389,289.3518356477204 750.3849048188347,292.6283016062783 750.9580031089256,292.8193343696419 C 752.3672146424502,293.28907154748356 752.2746749776987,296.58731313867065 750.7853743352971,298.9720625273033 C 749.7202834132736,300.6775441827992 750.0588408423793,301.3443186243627 753.5353743352972,304.3880704381122 C 756.3030000774302,306.81116398504844 758.1511990163473,307.70378306272306 759.65685923145,307.34454557016954 C 760.8431318087476,307.0615112030004 762.7106492987338,307.3099604456873 763.8068980980861,307.8966549983627 C 765.3808349991157,308.73900046467867 765.9300069248989,308.6247823209464 766.4177920015645,307.35363478713833 C 767.499784099788,304.53400857663945 775.5195469581118,306.1419930093596 779.4696297915494,309.9705640349778 C 783.3275266117614,313.709784858566 794.8610825506878,320.9986253652518 796.921259328416,320.9994388199583 C 797.7029519590448,320.9997474689812 799.1280177240618,320.2891331141061 800.0880721395652,319.4202958091248 C 802.27781542465,317.43860537190454 805.4891765130587,318.8728647200785 806.3648268084332,322.22362243985236 C 807.2423419257414,325.5815160750981 813.0231745011919,328.80266749516016 820.1872446480013,329.9256446436603 C 826.056676794818,330.84568563160104 826.8277731176021,331.2827034514438 831.1673656560217,336.1486136849467 C 835.3840878498631,340.8767515212065 836.0023705118214,341.2429220808094 837.5709895945037,339.9410838693997 C 838.5259316498568,339.1485523548556 840.0692274054123,338.62920647063436 841.0005357179605,338.7869819044636 C 843.1054646496789,339.14358354852374 844.3946105362378,337.57030021840575 845.9472291967415,332.75 C 847.3645176896282,328.34984933480786 848.769992849951,328.0941373552031 852.8176306269718,331.49999999999994 C 854.4517252819356,332.8749999999999 856.2052522849555,333.9999999999999 856.7143573003491,333.9999999999999 C 857.2234623157426,333.9999999999999 859.496100006342,335.588750143175 861.7646632794587,337.53055587372234 C 864.0332265525753,339.4723616042697 868.3478530568119,342.14839007128666 871.3527221777621,343.4772858004267 C 874.3575912987122,344.8061815295668 877.1262061184239,346.3951887948237 877.5051995548988,347.00841305655314 C 877.8841929913739,347.6216373182826 879.3880658609887,348.5733575666884 880.847139265154,349.1233469418994 C 882.3062126693193,349.6733363171104 886.9015299717998,352.1129455971308 891.0589554928885,354.5447008975004 C 897.9292790614493,358.56328058542385 898.8206543588694,359.4552290353589 900.8433787277504,364.33541549672896 C 903.8979512464018,371.7051212659048 906.7452039001067,375.2912288451795 912.9074934532018,379.53013774868106 C 918.6979146103794,383.5132462324192 924.8336584532997,385.99957379018764 928.8757265232316,386.0007888950282 C 930.3190769354542,386.0012227872938 934.3529047408528,387.3512227872938 937.8397883130062,389.0007888950282 C 941.8784461090479,390.9113869644021 945.7691211257286,391.9999999999999 948.5588917356995,391.99999999999994 C 953.296358212446,392.0 966.274214595049,395.8674813340658 971.0974258906738,398.7166223428406 C 974.2519073661147,400.58002039493334 974.5247998552425,401.2776056064469 975.511437202568,410.0 C 976.8895619171251,422.18334914693446 977.1336126239736,421.46865560654555 971.5,421.74734666157576 C 965.7742149911303,422.0305974229446 959.0,423.901663203816 959.0,425.19989759057876 C 958.9999999999999,425.6837757897865 959.8724835473737,427.78988517106535 960.9388523274973,429.8801406600872 C 962.4623375170991,432.86641833378224 964.9795812499285,434.92636502304117 972.6888523274974,439.4955677572423 C 978.0849835473738,442.6937971716558 987.225,448.5640649575274 993.0,452.54060728140155 C 1003.6577825668595,459.8793299577245 1013.6751419402718,463.9999999999999 1020.8578129007092,464.0 C 1022.5860158053191,464.0 1024.0,464.45 1024.0,465.0 C 1024.0,466.7764057031204 1017.704718379033,466.0659066054047 1009.6363225593022,463.3788843016164 C 1004.3361416659023,461.61376213943254 998.9377556281531,458.7562219528757 993.1060641039621,454.6288843016165 C 988.3431948865699,451.2579979357274 979.2249800926685,445.3932317915026 972.8433645619591,441.5960706477837 C 961.6877780826762,434.958322054079 961.1549962699344,434.48602372577676 959.0246046490286,429.34607064778373 C 957.8059022276262,426.4057317915028 956.4133621659163,424.0000000000001 955.9300711785619,424.0000000000001 C 954.4188577476943,423.99999999999994 951.9163992045615,418.09389688077874 952.214981618775,415.2319418447694 C 952.6541169100545,411.0227674308053 949.8331600894624,411.8223031407789 947.5,416.5682955771489 C 946.4,418.80585814458084 944.5389406811664,421.8386483269665 943.3643126248141,423.3078293157838 C 941.5287378657042,425.60369780373077 941.3008537467892,426.878882350189 941.7426239329633,432.38240796067214 C 942.2320593786271,438.47974226296515 942.1285769288951,438.8696472007748 939.5771991781801,440.54137410934277 C 938.1035162872153,441.50696822524026 936.2138267494337,443.61961128004504 935.3778890942212,445.2361364533533 C 934.464561195993,447.0023178542801 932.1600414607817,448.9263620097939 929.6033309258488,450.05731664320854 C 927.2632615884564,451.09244057432073 924.8562015223014,453.02018746949545 924.2543085566153,454.34119863248577 C 923.6487847019588,455.67017872871673 921.8983555719772,457.059679090961 920.3355732337728,457.4519124896565 C 915.8265164372505,458.5836137054783 915.0000000000001,459.8492844946918 915.0,465.6224447154422 C 915.0,470.56292588075974 914.6748900969959,471.32510990300415 911.0,475.00000000000006 C 908.7290826377425,477.2709173622576 906.0273910162699,479.0066192631383 904.75,479.01531277451704 C 901.7634208458821,479.0356384692568 901.0898439134432,479.5944260341302 896.631834444001,485.75 C 892.4781248707709,491.48539977562194 892.39113359243,491.5167200909099 885.2154129569346,489.8603651682701 C 880.7540725389343,488.8305643248017 879.8343349139406,488.9424301424468 875.6722373872763,491.02108221302353 C 867.9180786411514,494.89369644898306 865.8637408410927,497.7830126063241 865.2580737263245,505.66804598398744 C 864.9694459776005,509.4256206927943 864.118304401063,513.7151530329021 863.3666480006857,515.2003400731157 C 862.6149916003085,516.6855271133294 861.9999999999999,519.2242434998817 862.0,520.8419320432321 C 862.0,523.057271833863 861.4446914795031,523.9232721997305 859.75,524.3507937863558 C 858.5125,524.6629792017234 855.1375,527.1387417854975 852.25,529.8524884169647 C 847.8230487655585,534.013050841254 847.0,535.3448981831644 847.0,538.3479735420594 C 846.9999999999999,541.6473090562358 846.734267070377,541.9592256807664 843.3887509859537,542.5868482814418 C 840.9376378536881,543.0466798768673 838.7055397885354,542.7531395431699 836.4407183773372,541.673121486766 C 832.371628814048,539.7327079160766 824.4573074908409,540.4015256666986 821.3076330042666,542.951977336289 C 820.1357692435562,543.9008950412061 818.6063064479525,546.5819928441731 817.9088267918139,548.9099724539934 C 816.9135167333098,552.2320213499775 815.8187554505901,553.5619782715082 812.8203409812356,555.0916551922405 C 810.0812604727689,556.4890297982705 809.012490821563,557.6717067601659 809.0441329343928,559.2703238654071 C 809.1279318381775,563.5039969362108 811.6565951533912,571.2283168039893 813.2508115879315,572.1204851760847 C 814.1303585872747,572.6127044241014 815.3687785316074,574.5873801645847 816.0028559086708,576.5086534882697 C 816.6369332857341,578.4299268119547 818.3985512955843,581.244705141755 819.9175625972268,582.7637164433816 C 824.1266644261074,586.9728182722179 824.8417228099828,594.5051169416604 821.6787562492743,601.3158191822532 C 819.2639800343997,606.5154700358156 818.4733744264244,607.4468808630775 809.8311891023611,615.2734134695099 C 805.7525119361244,618.9671435430573 805.3241582535603,619.7228276299202 806.4422922561384,621.2519669942069 C 808.3487655195125,623.8592245387085 807.1549995656459,627.8684863170395 803.9839525545921,629.5082984565338 C 802.4614360680981,630.2956223304561 799.7793858969894,632.7533422170679 798.0238410632395,634.96989820456 C 796.2682962294896,637.186454192052 794.1320736296617,639.0 793.2766797302888,639.0 C 791.9961317339477,639.0 791.8270069122206,639.8915323362647 792.3191977943127,644.0473141588247 C 792.8009652011506,648.1150860434417 792.6075468867707,649.2133679825935 791.3225659771354,649.7064614236476 C 790.4456396431017,650.0429696319467 789.0018197070506,649.7956037691986 788.1140772303552,649.1567595064299 C 783.3000812188219,645.6924736198204 775.8010263159838,645.4701755906375 774.5407515455862,648.7543989972356 C 773.5735337662996,651.274928126775 776.8786630969245,659.826713821866 779.0914585504898,660.5290278162923 C 782.0529113134185,661.4689564101831 784.1997280478811,665.3560387256508 783.4366222457991,668.3964944177566 C 782.4758890916569,672.2243601988013 786.2749480704987,679.6396595574494 790.462665617219,682.110473378359 C 795.008435457791,684.7925432227198 795.9098769872754,688.7917201315074 793.0219400751391,693.4645002127095 C 791.1018846833275,696.5712150969433 790.8858349874039,698.3489045308683 790.9031740512642,710.8980261313654 L 790.9224819317154,724.8720758023621 L 785.7112409658578,722.445806816885 C 782.8450584346359,721.1113588748726 779.9375,720.0151418193411 779.25,720.009768915704 C 777.7987899540531,719.9984275168179 777.5694624040369,723.1555212029219 778.9202029858518,724.5499999999762 C 779.4263146280703,725.0724999999893 780.7340823437933,728.1692844779583 781.8263534652361,731.4317432843518 C 784.0680714762501,738.1274368011976 783.4148852412446,742.0 780.0438028752808,742.0 C 778.7666415489076,742.0 777.8216278951057,742.8625097268579 777.4421347541395,744.3745308350974 C 776.2579614282366,749.0926531706423 770.51324703692,749.8400509655584 765.0,745.9932752052873 C 761.5722281177278,743.6016047976017 759.3865660902269,744.6380234984314 753.0543481964717,751.6577817790381 L 747.7843378515,757.5 L 748.3316695813643,771.119037926293 L 748.8790013112285,784.7380758525861 L 742.4918921585586,789.8563847310007 C 738.1306076580189,793.3512993546335 735.4792973839737,796.3887076041065 734.1327243993375,799.432859185591 C 730.5060811542428,807.6314877753497 728.2282940989363,822.0211021853535 728.8122427930846,833.044288582004 C 728.9937401209257,836.4704095671801 729.3036912684313,836.7371318593274 738.1088379898408,841.044288582004 C 747.2083521301823,845.4954391127915 747.2212879763332,845.5071652329931 750.7463786173212,852.5 C 752.6871650680231,856.35 756.2928511612452,861.8625 758.7590143800369,864.75 L 763.2429475051126,870.0 L 774.2087679762342,870.0 L 785.1745884473557,870.0000000000001 L 798.5872942236779,879.9923253856315 L 812.0,889.9846507712629 L 812.0237893354697,884.2423253856314 C 812.036873469978,881.0840464235341 813.1021155442197,874.9 814.3909939448956,870.5 L 816.7344092188519,862.5 L 823.6172046094259,862.5313799189446 C 829.9780730409544,862.5603802777337 831.0298874862507,862.89287899076 837.4877730680132,866.9161325547807 C 841.3310482554206,869.310487549071 848.5408676907005,875.371366585546 853.509594035302,880.3847526358361 C 858.4783203799036,885.3981386861262 866.8088224992975,893.6411750638213 872.0218209672887,898.7026112529361 L 881.5,907.9052225058723 L 892.6857398788449,909.1086760986966 L 903.8714797576897,910.3121296915208 L 909.6544363875821,916.1560648457604 L 915.4373930174746,922.0 L 457.7186965087373,922.0 L 0.0,922.0 L 0.0,461.0 M 709.877708069368,869.491518417238 C 712.0136164128572,867.561853546719 715.3187392685218,862.949353546719 717.2224255264003,859.241518417238 C 720.5142792421234,852.8299310047869 720.6103799141385,852.355080081419 719.1860616833517,849.5388345261176 C 717.8100856417137,846.8181739829164 717.853219492236,846.2902460223831 719.7171379842011,843.0388345261176 C 720.8329163212238,841.0924755367529 722.8958721918723,838.9283509797857 724.3014843634198,838.2296688439683 C 726.7537217668036,837.0107448041737 726.8571428571429,836.6017344658427 726.8571428571429,828.1225355528184 C 726.8571428571429,818.7709310815252 729.4419009620988,805.6490438193387 732.720064491933,798.3585910772231 C 734.3890372255393,794.6468888599602 744.1165001551965,785.0 746.1902310277455,785.0 C 746.6356039624854,785.0 747.0,778.4437198065332 747.0,770.4304884589626 L 747.0,755.8609769179253 L 752.75,749.4310443990066 C 759.16343561862,742.259225574284 760.6555456582644,741.8101031372464 767.0301649104332,745.1327404566241 C 770.3726726971361,746.8749529203144 771.568532097406,747.0619894815488 773.5609585271229,746.1541792477739 C 774.9754507466484,745.5096934623375 776.0,744.1937474517958 776.0,743.0214387911499 C 776.0,741.9096474560174 776.5889916642029,741.0 777.3088703648955,741.0 C 778.0287490655879,741.0 779.4188089510089,740.4142446153479 780.3978923324977,739.6983213674397 C 782.097933362998,738.4552210154735 782.0844641794135,738.1115846281916 780.0985911530822,732.0623146742001 C 778.954892122915,728.5784342408266 777.5454554671435,725.1572336308886 776.9665096958122,724.4596466521158 C 775.6259606925329,722.8443839187096 776.795120688556,718.0 778.525502661859,718.0 C 779.24528029302,718.0 781.8964966795766,718.884008174477 784.4170946319848,719.964462609949 L 789.0,721.928925219898 L 789.0037380604377,709.214462609949 C 789.0069883454228,698.1590964373801 789.2750928300471,696.061038312332 791.0583530716655,693.1360231754412 C 793.7060538397288,688.7930985457111 793.2363879308439,686.0488546466877 789.5,684.0306126516157 C 785.6947462150724,681.9751721746646 780.8687307860735,672.6608220610144 781.6130924280733,668.8086516944453 C 782.2065623013464,665.7373662731108 780.5635033738602,662.0 778.6198038036241,662.0 C 775.0446736292764,662.0 771.1585451590271,651.9408982485877 773.0932430030025,647.6946990161512 C 774.8664435451473,643.8029477514991 785.1506981319384,643.0668012788447 788.1000183378485,646.6205147244813 C 790.0683504397845,648.9922098161542 790.5867824967755,648.1707350303957 790.5426969751169,642.75 C 790.5056417507494,638.1937070214848 790.7723076228376,637.4610517272894 792.5608340057411,637.205238053821 C 793.6942927088987,637.0431189834225 795.4346058211452,635.5342820849337 796.4281964773998,633.8522671682904 C 797.4217871336543,632.1702522516471 799.71672488826,629.919656862155 801.5280581543012,628.8509440805301 C 805.6569837316205,626.4148183704873 806.4001945474046,624.5404074910899 804.4296557905215,621.5329852168302 C 802.9431890151279,619.264350167329 803.0538911502988,618.9990030500833 807.2238788141344,614.8353815697803 C 809.6119845202466,612.4509217064011 812.748316654065,609.7284973124945 814.1935057781754,608.7855495833212 C 815.638694902286,607.8426018541479 818.0367565082229,604.501459611555 819.5225315691463,601.3607890442261 C 822.9675572314874,594.0786028062346 822.4794671690286,588.133836872812 818.0591455466838,583.537260062796 C 816.4527073676342,581.8667670282582 814.830801892223,579.2520018859594 814.4549111568814,577.7266708576877 C 814.0790204215398,576.201339829416 812.9078587168749,574.3484424057903 811.8523295909597,573.6091210274083 C 809.5544520857529,571.9996249720255 806.5324362086056,560.9990585393226 807.4184143244328,557.4690405548837 C 807.8075293809928,555.9186826813252 809.2965709324478,554.4850981156656 811.4541599452414,553.5835998650208 C 814.1362620304616,552.4629460595279 815.1424591932968,551.2565527095321 816.1220492699503,547.9869724366772 C 816.8848172699634,545.4410797566208 818.5635147572928,542.932212888156 820.4354105553718,541.5405165967217 C 824.3146147387714,538.6564489679072 832.5046850200182,537.6054537577345 836.0,539.5431822158355 C 837.375,540.3054530398238 839.9032489020182,540.9450751056195 841.6183308933737,540.9645645842706 C 844.5384854122855,540.9977480060786 844.7728187262196,540.7299037144347 845.3055959075366,536.75 C 845.6992431651994,533.8094120058288 846.5866496216015,532.0378545861781 848.1858791361315,531.0 C 849.4571211454246,530.175 851.8478518890513,528.0986876536416 853.4986141219686,526.385972563648 C 855.1493763548859,524.6732574736544 857.2626722721684,523.0094079251053 858.1948272714853,522.6885291224278 C 859.1898194702541,522.3460196624685 860.1727400413608,520.5349457674138 860.5752175299344,518.3025565587798 C 860.9522771727643,516.2111504514509 861.5907932487587,514.05 861.9941421432551,513.5 C 862.3974910377515,512.95 863.0259144778494,509.14112419425317 863.3906386768058,505.0358315427849 C 864.134933783662,496.6581334316037 865.4455881455089,494.60617451520096 872.8245337251408,490.26613662981083 C 876.7363193450282,487.96536105061455 877.8601109171517,487.7763731358159 884.5989658589779,488.2860315710876 L 892.0488642676742,488.8494661009427 L 896.025255360236,483.5827740392684 C 898.9500949471711,479.70885191350027 901.03973487533,478.00506312118335 903.9271275486467,477.139979234521 C 909.3993913591266,475.500449118039 912.996352677463,470.9612789836926 913.0136546832952,465.6732747180542 C 913.0361448507689,458.79961494182714 913.7937806016273,457.3783601014184 918.127643397984,456.07990322481 C 920.704183622524,455.3079529971228 922.4922022680552,454.0138397364159 923.2351507287943,452.3832454844226 C 923.9270567935023,450.86467708883066 925.4955370662962,449.6508925867409 927.2087239396079,449.3082552120785 C 928.7654664448613,448.99690671102775 931.1614615696275,447.3376794469712 932.5331575501996,445.621083514175 C 933.9048535307717,443.9044875813787 936.4628600526191,441.06382251174085 938.2176164876385,439.3084944705352 L 941.408082733128,436.1169889410704 L 940.0940748621213,430.9899996718664 C 938.8758744555319,426.23683148305037 938.9258667250745,425.7039516279285 940.7797232723779,423.6815052013312 C 941.8795342270727,422.48167734059905 943.9189153586445,419.22173368455657 945.3116813425377,416.43718596568124 C 948.668603112168,409.7257147176978 950.0347952362455,408.6356431463887 952.726491216183,410.52098039878047 C 954.1031460054137,411.4852269471147 954.6368505425529,412.67268174227985 954.2898947828526,413.9994426055496 C 954.0001620345934,415.1073823369143 954.3379367934941,417.40163802770553 955.0405053581877,419.0977885850856 C 956.222073779219,421.95034709201116 956.5872993287916,422.13250116830585 959.9089513742698,421.52589715549664 C 961.8840281184214,421.1652063118427 966.1352743992793,420.6319461031214 969.3561653317319,420.34087446944926 L 975.2123306634637,419.81165331731813 L 974.4567056267388,416.65582665865907 C 974.04111185654,414.9201219963966 973.4308374572607,410.8 973.1005402950069,407.5 C 972.505926809689,401.5592147744777 972.4555889191417,401.4788984859632 968.0,399.36186664835895 C 961.012958269196,396.04203843637225 953.6647788050793,394.0 948.7055745410951,394.0 C 945.7528316101805,393.99999999999994 941.9758408424447,392.9574622198357 937.8397883130181,391.00078889503095 C 934.3529047408581,389.35122278729796 930.267326942153,388.00122278729793 928.7607265381178,388.0007888950309 C 925.0730233350148,387.9997268576793 916.7933520903899,384.7695699489112 913.0282012510619,381.8630421479794 C 911.3445890839293,380.56336896659076 908.5629205343643,378.3956877353359 906.8467155853616,377.04597274519085 C 905.1203679761484,375.6882810267803 902.226720802395,371.462759290427 900.3696026993568,367.58760424163677 C 897.3639045583385,361.3157649292897 896.3062865146452,360.12747133564795 890.2564312239512,356.2248850186759 C 886.540394050778,353.8277771328571 882.2463562473567,351.6120642089278 880.7141249941262,351.30107852105516 C 879.1818937408957,350.99009283318253 877.3818937408956,349.96303227043666 876.7141249941262,349.01872171495324 C 876.0463562473568,348.07441115946983 873.2858466278346,346.3252861731352 870.5796591729658,345.1317773008764 C 867.8734717180969,343.9382684286176 863.7477381369256,341.39536490636 861.4113623259184,339.4808805847484 C 859.0749865149113,337.56639626313677 856.8541000460898,336.0 856.4760590618707,336.0 C 856.0980180776517,336.0 854.4517252819468,334.875 852.817630626971,333.50000000000006 C 851.1835359719952,332.1250000000001 849.5023052480229,331.0000000000001 849.081562351477,331.00000000000006 C 848.6608194549312,331.0 847.8009656571088,332.7209514966237 847.1707761340938,334.82433665916375 C 846.0519056524608,338.5587934914693 845.2233032747263,339.2425884654401 838.5320396888005,341.9533586381976 C 835.6800964402262,343.10874021797775 835.3787853898743,342.9584031818087 830.8238697133256,338.1074212686693 C 828.2167543979741,335.3308453365719 825.052336538014,332.8467303290472 823.7918300245251,332.5871656963924 C 822.5313235110362,332.3276010637376 819.7,331.82775659182244 817.5,331.47640020324764 C 812.0355406488437,330.60368533818587 805.5671995555373,326.34102958997215 804.1963607556428,322.70926292970404 C 803.0955104475831,319.79277745594544 803.012352692875,319.7618863378135 800.5700201557557,321.362164078239 C 799.1952106938597,322.26297383520745 797.4636228659168,322.9999999999999 796.7220472047713,323.0 C 794.7484467702516,323.00000000000034 782.1056582602417,315.23643560093467 777.7471191769666,311.34805505171073 C 773.6135209206195,307.6603508115533 768.737980448568,306.85888471288706 767.1963292190932,309.61366262612063 C 766.4539522676455,310.9402166417383 765.9016243658461,311.0177184753458 764.0920304976589,310.04925322763256 C 762.881344255301,309.4013136140978 760.8600809840237,309.00624815379496 759.6003343392651,309.1713299825152 C 756.5376599791492,309.57267408312947 748.0722678372078,303.1912375240692 748.0309208352814,300.45000000000647 C 748.0139143758767,299.32250000001005 748.5209282601729,297.8790717398344 749.1576183559399,297.24238164406063 C 750.0236558868118,296.3763441131796 750.0287660399833,295.7395872450124 749.1779064085299,294.714364108309 C 748.5523747416873,293.96064455941934 747.6104724961556,290.306884812126 747.0847903073482,286.5948980032126 C 746.5591081185408,282.88291119429925 745.3784601952733,278.7003556689332 744.4611282556427,277.30033016906583 C 742.33249471797,274.05162476171387 743.767776681135,270.95803094083584 748.4366058916228,268.7316214655951 C 754.4207537269967,265.87798025464866 757.1752092261476,255.17520922614784 752.9999999999999,251.0000000000001 C 751.8999999999999,249.90000000000006 749.7624999999998,248.99385539251918 748.2499999999999,248.98634531670928 C 741.8432778768491,248.95453376706445 741.0,248.19856312566134 741.0,242.48696083071883 C 741.0,237.69503861945637 740.6733828957258,236.92041077357553 737.4652037716876,234.10359219468296 C 733.1073653846223,230.27735941343911 731.4743352338243,230.20056383336072 730.2323047653645,233.76345476698907 C 729.7024647294182,235.28335488883312 728.0502652083778,237.9752451063816 726.5607502741636,239.7454330282079 L 723.8525413028649,242.96395652243757 L 717.6772789703346,239.63382017814104 C 712.1758495104157,236.66706197362723 711.436583649837,235.90113167080435 710.9023636936954,232.61454174781596 C 710.1421332036164,227.9375059330398 705.8156861287944,223.3756054386779 701.3448285583277,222.5368675026711 C 699.4423937185304,222.17996857539163 696.2683403156859,220.36227264850405 694.2913765520066,218.49754322069867 C 690.1697089417924,214.60986706517082 675.6043854568007,208.0 671.1592755128149,208.0 C 668.5350046885262,208.0 667.9545622026735,207.44788840167695 666.4573962612269,203.52761534176364 C 665.5179856546787,201.06780377973362 663.9650924635243,198.80630844887023 663.0065225031063,198.50207016206718 C 662.0346686529341,198.19361573243913 659.669777430483,194.41219549969543 657.6606626922057,189.95413262547328 C 655.6790097566284,185.5570052671497 653.3004994433596,181.668806858069 652.3750842182751,181.31369171640512 C 651.4496689931907,180.95857657474124 648.5048604761973,181.11616288878432 645.8310652916233,181.66388352538974 C 641.7213214369231,182.5057548599513 640.5043555188525,182.37679530793346 637.9606401134281,180.8298696141544 C 636.3057014499947,179.82344132636953 633.465978374179,179.00000000000003 631.6501443893931,178.99999999999994 C 629.4626899314769,178.99999999999983 627.591533890429,178.19411019351494 626.1049836058243,176.61174992744316 C 623.3407297409706,173.66933652482962 620.4663848021148,174.19743109643616 618.4948629078426,178.00993404082044 C 616.8074851828902,181.27296275146216 613.2252844663452,182.4163506296617 609.3298037315409,180.9352914940655 C 605.1502334799867,179.3462217167145 600.0970472459022,180.6145470772429 598.9882219505698,183.53097861762956 C 598.3188970920622,185.2914364069078 596.835535484798,186.26441939174066 593.5657144826523,187.08776981107553 C 590.5393720707318,187.84981161466976 588.8544657043799,188.8831774600514 588.4233034327568,190.24164948533928 C 587.8438037307984,192.06749136804765 587.212113102378,192.20256233170974 581.8659341477764,191.6437760146265 C 573.5303992665174,190.7725401512612 570.5978022649856,188.96224612630377 567.9186068356901,183.03408184798593 C 566.6735651326139,180.27922056818284 564.8325433524162,177.76423899526134 563.8274473241395,177.4452339081604 C 562.5940727344662,177.0537760202197 562.0,175.89281879889725 562.0,173.87397395216817 C 562.0,172.02248532522728 560.8138625523604,169.40673380727424 558.8870393729795,167.00906002363422 C 556.2106202208553,163.67861429111906 555.4444808985929,163.26070968003438 553.4237290527359,164.02899816246497 C 552.1310367214631,164.52047891082077 547.0716921894167,165.22468691837037 542.1807412037437,165.59390484590853 L 533.2881030479746,166.26521016870515 L 532.1440515239873,162.98338181910924 C 531.5148231857943,161.1783762268315 531.0,158.4884483418233 531.0,157.0057642968688 C 531.0,155.52308025191428 530.1,153.4954863183234 529.0,152.5000000000001 C 527.9,151.50451368167683 527.0,149.55770258093924 527.0,148.1737531094721 C 527.0,145.27014894074026 524.4121348614073,142.00000000000026 522.1143386017563,142.00000000000017 C 520.4559408905168,142.0000000000001 510.2113711669228,138.0412704008313 508.5,136.73911675648492 C 507.95,136.3206309725516 506.2327587571372,135.02707544043676 504.68390834919376,133.8645489073408 C 503.13505794125035,132.70202237424485 500.72129660191604,129.93465897467863 499.31999426178425,127.71485246386032 C 497.1885801567926,124.33847409638743 496.8740417347088,122.9356186080831 497.3954697311218,119.13138662738322 C 497.863892255897,115.7138717231426 497.4978567735501,113.33111844901856 495.9223553605256,109.54196631437878 C 494.0598353129481,105.06252138608792 493.2192728563528,104.2339694807484 488.38826386445095,102.1155272495655 C 482.5268472205942,99.5452417101018 482.40504397343847,99.13435249251873 485.62668521644156,92.79965992688426 C 487.4115698998513,89.29005259271348 487.3607325431967,87.54427085115205 485.42691201301403,85.93934235831773 C 483.2800273944084,84.15758637763095 480.0,77.54495776602882 480.0,74.99853323243047 C 479.99999999999994,73.5859961190279 478.41504758606914,71.93212976140556 475.0665810527372,69.85060856717263 C 470.9538199367595,67.29397574898341 469.69666328023476,65.75678453687601 467.5091311234959,60.609719170551045 C 465.29477463861747,55.39953858559189 464.1915109733331,54.06766334187921 460.44255007075867,52.07884422380505 C 457.7756561630908,50.66406030706611 456.0,49.022512442446306 456.0,47.971822417608905 C 456.0,43.39571382032143 446.738586836418,37.89728678306035 442.9821430936737,40.243224727744405 C 441.289410800855,41.30035354102305 439.99999999999994,46.833731827870075 440.00000000000006,53.04079539479767 C 440.0000000000001,55.13002394806164 439.1588897275497,56.29871546453339 436.5455523302019,57.84062226414164 C 433.23790923877675,59.79217944865276 431.17268067609564,64.24867849968471 429.8129324963848,72.36875461837002 C 429.5929080957602,73.6826853209062 427.42173494975793,74.96715320774376 422.5,76.69509172672662 C 414.41222443510117,79.53457395690329 410.49236315327846,83.18295478364125 412.1671464240397,86.31231595015504 C 412.8936036422503,87.66971367885851 412.8742884883458,88.98049090314284 412.10288086291166,90.67354621780817 C 410.6607623515956,93.83865157774875 410.6833063279988,106.21082706078744 412.13700575564326,109.40134976337816 C 412.76235892124697,110.77385045647448 414.2248589212469,112.03252431598106 415.38700575564314,112.19840278450391 C 416.730676926723,112.39019104177073 418.44613644363255,114.25449646458645 420.098623295225,117.318834973484 C 421.52786610759875,119.9691942089002 424.086646255564,122.98261432883879 425.78480140181443,124.0153241289031 C 429.6732598597955,126.38003689708952 430.96023776019547,128.75717264197678 430.2796248862442,132.31756892151049 C 429.89086132946846,134.35125411045954 430.32527839718006,135.6543863453767 431.8725408571099,137.0958806026885 C 433.35083573692106,138.47312178513005 433.99999999999994,140.28656747227703 434.0,143.03895514742294 C 434.0,146.4735314388389 433.7009490407962,147.00291900325016 431.75,147.02196200049087 C 430.5125,147.03404110076085 427.55271942268763,147.9276114310346 425.1727098281947,149.00767384554365 C 421.23804394557203,150.79324846814393 420.58474169616426,150.83662187790102 417.972369755079,149.48571184505272 C 414.2718202459741,147.57208332214609 412.00994220142417,147.60414395919258 410.55725193692365,149.59081627435546 C 409.6417055486357,150.84290056741332 408.410751994973,151.03418260373857 404.7762183934118,150.48915063065778 C 400.9267535547295,149.91188772808593 399.9586673127455,149.3144276282338 398.957888711553,146.89833435630226 C 398.0538464089954,144.71578316850884 397.0926348631042,144.0 395.0657708612064,144.0 C 391.4235294031179,144.0 387.64802269467145,139.7411410879042 385.5462517098232,133.26176216664248 C 384.6117073602765,130.38073135829586 383.43148712802446,127.7666737108271 382.92354008259645,127.4527451722675 C 382.4155930371684,127.13881663370789 382.0,125.58508130618749 382.0,123.99999999999994 C 382.0,120.14306825984845 380.81087644531243,119.63063876971242 376.2940184427773,121.54111908004262 C 373.31211008158175,122.80236687841835 371.1086742566235,122.97243111227706 366.0,122.33562570463721 C 362.425,121.8899955434734 358.19123188401267,121.6435543501417 356.591626408917,121.78797860834453 C 354.99202093382144,121.93240286654736 352.1260528632024,121.53664583885859 350.2228084742081,120.90851854681392 C 347.59760716176794,120.04212398340925 346.5871209964615,120.05001827221659 346.0363250143196,120.94122489218927 C 344.89544325690576,122.78721035282963 339.98265784075994,121.05604414877159 338.76249277969055,118.37807354892203 C 338.1698405489636,117.07734358995145 335.2588304722281,114.64389669385824 332.29358149805614,112.970413779826 C 325.31370301877183,109.03121424587613 321.30814842245286,109.56051933439127 317.0076517199888,114.99033891619831 C 313.67319503211905,119.20043357994001 308.6218738874132,120.99999999999991 300.1387394271525,121.00000000000011 C 295.465829426406,121.00000000000023 295.02279962856454,120.77185473564249 292.85670468239294,117.25000000000011 C 291.58817682936547,115.18750000000006 288.7660671523039,111.55701954433361 286.5853498444783,109.18226565407468 C 282.7153440624592,104.96791322370939 282.5066773151953,104.88017345184024 277.8704060689308,105.51782372096767 L 273.1204028530661,106.17111613378597 L 270.61669007209025,101.23027677356248 C 267.3189931275169,94.72258508239086 264.7626666361688,93.69182427626104 254.45263603942482,94.71261425219575 C 246.65723823811447,95.48443193589051 246.49352356548383,95.5566543478568 246.1724414674326,98.3654061121452 C 245.85693371806252,101.12539476635072 245.69424700428286,101.2067245674454 241.75037027410312,100.57607324177405 C 237.91096660022043,99.96212783161637 237.38523000466787,100.18693516734726 233.31227025635084,104.18424280742494 C 229.6339436573799,107.79424730669432 228.4350236349092,108.40117394530995 225.48434144968033,108.14695794180426 C 223.4384217743906,107.97069174615991 222.0,108.30006924598455 222.00000000000003,108.94482105515795 C 222.00000000000006,109.54875214508581 220.87682810758784,110.55462894386172 219.50406246130623,111.1801028302155 C 217.45245943076097,112.11487572772077 216.6625175668627,112.00455771980356 215.06676237470074,110.56041911872114 C 213.4002759159799,109.05226960115053 212.6209597776041,108.96999038850558 209.56269991339448,109.97930716252745 C 207.60321496102745,110.6259955142966 205.99999999999991,111.81816771929928 205.99999999999994,112.62857872920006 C 205.99999999999997,113.43898973910083 204.5375,114.71723373077616 202.75,115.46912093292298 C 200.9625,116.2210081350698 198.17830895785534,118.2230461442222 196.56290879523405,119.91809428659496 C 193.87884998681022,122.73449173566762 193.0737176763034,123.0 187.21727929463376,123.0 C 179.75211843465107,123.0 175.62407813326124,125.26212287666729 173.4072434469764,130.5677550938791 L 172.04076548602256,133.83819719702785 L 168.27038274301128,132.03339882647106 C 161.80646586702298,128.9392655672357 154.87324362508022,128.51385661369392 150.1533386767441,130.92177244431406 C 147.9128242785609,132.06479759994133 144.96226579020149,133.00000000000003 143.59654203594545,133.00000000000006 C 140.94775472908285,133.0000000000001 137.99999999999986,136.2512411783315 137.99999999999994,139.1727347068625 C 137.99999999999997,140.1229819278907 135.975,142.59314719746052 133.5,144.66199086146213 C 130.3149218316619,147.32438633132722 129.0,149.17267860097778 129.0,150.9873213968259 C 129.0,152.74138129784725 127.46182734977401,155.0432618219408 124.12982206052965,158.2755589988206 C 121.45122419382095,160.8740015494692 118.75122419382096,162.99999999999991 118.12982206052965,162.99999999999994 C 116.43691604493422,163.00000000000003 116.7616835103785,165.6125372237013 119.0,169.99999999999994 C 121.40206443120856,174.7084352579561 121.47115621508354,176.1882042011909 119.46964961629988,180.05869117028635 C 118.34207163065938,182.2391865544698 118.21168730142283,183.52702424900875 118.97424896512109,184.9518837511966 C 120.29239087617555,187.41485444144777 118.59646353887288,191.42822175504395 115.68940112301902,192.72538953157812 C 114.0417173833347,193.4606067189979 113.17825907794038,193.15623210663446 111.55348303193932,191.26745177375625 C 108.50378936047731,187.72222383779686 103.49266540248848,187.87013829500162 100.44689089473343,191.5952875170231 C 97.51527117603123,195.18081917295507 97.51342201270127,195.44957255576165 100.38218157174447,201.0 C 102.5846566636277,205.2613115333086 102.9090690178124,205.48348869541164 106.49833629872819,205.1887119362006 L 110.28864889095973,204.8774238724012 L 109.45429669272465,209.6887119362006 C 108.99540298369536,212.33492037129028 108.6741562587267,216.6375 108.74041508168318,219.24999999999994 C 108.84555980966985,223.39572112223556 108.60273352980607,223.99999999999991 106.83165263474757,224.00000000000006 C 105.7155744659765,224.00000000000014 103.54133078034018,222.65000000000023 102.00000000000017,221.00000000000023 C 100.45866921966017,219.35000000000022 98.7753565686597,218.00000000000017 98.25930521999913,218.0000000000001 C 96.26528342722428,217.99999999999986 94.89823952669038,223.3373745757896 95.5520239150656,228.57008805702577 C 96.13224030683901,233.21398318399906 95.97076021908418,233.94528113887205 94.1499344138013,234.91975753689525 C 93.01812903284906,235.52548139455018 90.64810382164514,239.04670902528503 88.88321172223704,242.74470782741713 C 87.11831962282893,246.44270662954924 84.62259567193131,250.29562612722705 83.33715849802007,251.30675115559006 C 79.12681504575896,254.61860779781875 80.24438768498003,257.40530591655346 87.38417720846235,261.39810363781817 C 94.1517117461051,265.18272451377095 95.67324182477176,267.94775986632936 93.78987072165688,273.0389967558552 C 92.38078201408928,276.848126245374 93.85001256076865,278.784407992206 100.55225684865974,281.9510663097721 C 106.65110045967272,284.8326315017842 108.07675383003232,286.2164955467734 106.16420559834336,287.39851535908076 C 105.7045186774322,287.68261750038766 105.53524223733618,290.4091751478564 105.78803573146331,293.4575323534557 C 106.23848565116121,298.8893662035081 106.19528570900496,298.9999999999999 103.62383013311995,298.99999999999994 C 101.6222556652441,299.0 101.0,299.499683917592 101.0,301.1069888041902 C 101.0,302.7320897863618 100.59975881843538,303.042807475963 99.25,302.4655595406555 C 98.2875,302.05392960340674 96.19857821971705,301.4953282046676 94.60795159937123,301.22422309901293 C 92.34372454398722,300.8383100838374 91.890877128951,301.03182631935454 92.52191764671261,302.1156523625477 C 96.69731157700335,309.2869837665784 100.63670470605848,312.0438857438048 108.0,312.9476649201993 C 112.07201966218602,313.4474692102134 112.53154332005518,313.7765641325641 112.83166229311689,316.40793404878195 C 113.84235844832145,325.2694712921987 108.34424039291378,332.98268520707506 99.12641790617886,335.634782335195 C 91.33852367123819,337.87546900108714 86.22718713030787,340.5937171057732 81.27234308786808,345.12971671237113 C 78.62801037542377,347.5505178598186 76.06930808979577,348.9999999999999 74.44031500034362,348.99999999999994 C 73.00791085387772,349.0 68.61035646433709,350.0798113866876 64.66797191247554,351.39958085930573 C 60.72558736061399,352.71935033192386 56.15,354.10441025762765 54.5,354.47749180531406 C 50.730353533607435,355.3298466767761 47.96883892445769,357.755220602445 48.6744279059447,359.5939560138363 C 49.06849671366242,360.6208828654267 51.14479277204082,361.0 56.37485429174802,361.00000000000006 C 62.3653679044912,361.0000000000001 64.13703446885894,361.4085962942641 67.21481166066576,363.5000000000001 C 69.23830603773298,364.8750000000001 71.51698000662059,366.00000000000006 72.2785315915271,366.0 C 73.69977994009444,365.9999999999999 79.27302348046284,373.92317552736534 80.36775042719108,377.5 C 80.9449739045984,379.3859744581425 95.38579911867092,389.0 97.64141890651882,389.0000000000001 C 98.2181521896102,389.0000000000001 99.51674456923699,389.9135149786277 100.52717975013394,391.0300332858392 C 101.53761493103089,392.14655159305073 107.4647200207537,395.7806897846578 113.69852439396243,399.105895933855 C 122.49619233248116,403.79870593820544 125.64500372400835,405.0172439494066 127.76866777863381,404.5508090789885 C 129.80020516270747,404.1046086197275 131.8983984947932,404.79310923777 135.91805358015586,407.22494643097264 C 143.68046234962605,411.9210991987012 144.09675484886657,412.99022679156184 140.2744187759543,418.41301790452326 C 138.53318898080468,420.88332016958987 136.81830267106665,424.45160876719837 136.46356030986982,426.34254812143104 C 136.09718188633977,428.29551302039965 133.5059941395461,432.6826779343793 130.4648740498369,436.49898156495624 C 127.52033896801564,440.1940806046625 124.83781700300696,444.4619292599525 124.5037141275954,445.98308968782294 C 124.16961125218384,447.5042501156934 122.75080404293578,449.8178478382439 121.35080921815529,451.12441796015736 C 119.9508143933748,452.4309880820708 117.94001142426463,455.1875 116.88235817568824,457.24999999999994 C 115.82470492711185,459.3124999999999 114.63099800861895,460.9983178728027 114.22967613459286,460.9962619395617 C 113.82835426056678,460.9942060063207 112.02662366320581,460.09420600632075 110.22583036267957,458.9962619395618 C 108.42503706215334,457.89831787280286 106.7431943430927,457.00000000000006 106.48840209810038,457.00000000000006 C 105.65131153053748,457.00000000000006 98.99999999999989,470.9099671556909 99.0,472.66058464634324 C 99.00000000000006,473.6013667473502 99.94714588031033,475.37928814637445 101.1047686229117,476.6115210886194 C 103.59648158186702,479.26382799107694 103.13601736077455,480.2577745575858 97.87782192314478,483.5771276344022 C 92.24767482433978,487.1312834882537 91.16192378103716,490.02347706999586 93.27045716560627,495.850098369908 L 94.9531601108207,500.5 L 91.91214848195966,503.3609023655812 C 89.87962362597642,505.27304736147613 89.0922384585786,506.76537657024335 89.5378511536797,507.8609023655812 C 92.50255890323481,515.1495497739294 92.54589615660507,514.87707171538 87.62777782543805,519.8702714808693 C 82.35972997234246,525.2187428948179 81.5942323197805,528.9019540517675 85.22250624340558,531.443296031351 C 86.44488467727858,532.2994832141079 88.19001833897121,533.0 89.100581047167,533.0 C 90.22992656082911,533.0 91.45587307744636,534.9865646887673 92.95757386103412,539.25 C 95.18361175722941,545.5698798818676 95.45207795731973,546.1131894046179 99.01068136862693,551.5 C 101.12956974795817,554.7074522089048 101.61348314560851,558.9865168544154 100.0357451868187,560.5642548131843 C 99.41673876924445,561.1832612307504 99.60879800102391,563.0880566896301 100.57215329476554,565.8842163617999 C 101.91303355111341,569.7761504409145 101.90922759234509,570.4895908942191 100.5364081079469,572.5847782542883 C 98.36807859907061,575.8940673713889 98.61825359161017,577.0 101.53518329435326,577.0 C 105.41487474667748,577.0 108.99755391265535,579.8091022959816 109.01531277451704,582.8650099334899 C 109.03387707531883,586.0595158115713 109.82065240843595,587.343011325571 112.68425854591084,588.8502959998887 C 115.74280552482973,590.460189527729 118.95472614722144,590.2815567055941 119.65267016136414,588.4627437596532 C 119.97711547414438,587.6172528274624 121.650492315793,586.2796508352828 123.37128536502775,585.4902948881431 C 125.09207841426249,584.7009389410035 127.72827693166593,583.0617273486342 129.22950429259095,581.8476024606559 C 131.67920370587527,579.8663962135878 132.22077627280635,579.7801964792454 134.51255957686993,581.0067216815542 C 136.89373885379942,582.281090156615 137.2625823085347,582.1582316861576 139.97668442436088,579.1866703493884 C 143.37458214071376,575.4664486888495 146.84833510065667,575.0699432673364 149.58173712256604,578.0903185037982 C 151.33306845183543,580.0255178397782 151.34992393557792,580.2709610100495 149.80887429750663,581.3978040174504 C 148.3154848619615,582.4897970338963 148.49132623304806,582.8918704074517 151.5187208081685,585.3074855136521 C 153.37465267854978,586.7883684811434 155.39475815757896,588.0 156.0078440949,588.0 C 156.76261089500235,588.0000000000001 156.90420902836908,589.4559739042173 156.446366946595,592.5090836530821 C 156.06050550285568,595.0821921166525 156.19493193562099,597.5509547735803 156.75945981772685,598.2590836530821 C 157.30355926573816,598.9415876438869 157.95619931195347,600.9888622034194 158.20977103153865,602.8085826742654 C 158.7005170687396,606.3303500517239 156.3836446507765,608.9999999999998 152.8365107509697,609.0 C 150.5292527875702,609.0 149.68269340461478,610.599613814646 150.4249087898973,613.5568354565883 C 150.9566436406218,615.6754358514573 151.6112382082524,616.0 155.35238536155777,616.0 C 160.47198190590294,616.0 161.14483163605277,616.4888646066504 160.03671300437122,619.4034374807816 C 159.57713352111577,620.6122231262055 159.4403807227167,622.8528728714298 159.73281789681772,624.3826591368354 C 160.17844774874197,626.7138211343623 160.60734887973052,627.0416136140468 162.38226092486434,626.4075255622149 C 163.54701741618896,625.9914158307679 166.6375,625.6203391515195 169.25,625.5829107194406 L 174.0,625.5148590247519 L 174.00000000000006,621.3044825335019 C 174.00000000000017,613.550314363449 176.88783702906798,610.3001900087262 183.25,610.8940438631134 C 185.83422100885863,611.1352589363065 186.0,610.9097316726771 186.0,607.1529185811293 C 186.0,603.4706743284497 186.27627484788175,603.0639252435501 189.5,602.0 C 191.88570254647053,601.2126471572416 193.0,600.2328447432277 193.0,598.922447917128 C 193.0,597.7057651232913 193.69201367425867,597.0 194.8849900665232,597.0 C 196.87132638580263,597.0 199.99999999999991,593.0893869179035 200.0,590.6066118657634 C 200.00000000000009,588.2631021117692 202.9109894366541,586.0 205.9254058445994,586.0 C 208.8631177655468,586.0 211.29410076026002,584.0185901522499 216.80646476203304,577.1312266108652 C 220.31397033906475,572.7488117295761 224.14482282196033,571.6494657757098 225.77262797190477,574.5581922039055 C 226.47472870922405,575.8127766177499 228.52431101257656,574.2579754323439 236.29160433185262,566.5785580672554 C 241.59743682035767,561.3327535799498 246.86153942133066,555.2315670881924 247.9896101117926,553.02036586335 C 250.52595156440964,548.0487258995911 252.7657550707277,547.8482888854346 260.7785166948375,551.8759037520083 C 263.92533251267685,553.4576508156127 268.02484320242877,555.08209854945 269.8885404498417,555.48578760498 C 271.75223769725466,555.8894766605101 275.22653597417326,557.4560754946875 277.60920328743856,558.9671183475966 C 280.1286803902653,560.564923399145 284.0556674735531,561.964881498662 286.99448611215206,562.3129410936483 C 293.22758451530683,563.0511593957979 294.00000000000006,563.5090462000286 294.0,566.465799794267 C 294.0,567.7570709873014 295.34999999999997,571.8224610798811 296.9999999999999,575.4999999999997 C 299.0939706649393,580.1670658290308 299.99999999999983,583.7600377695643 299.9999999999999,587.3968728765058 C 300.00000000000017,599.2817982856176 310.54874683957945,610.8918765784555 332.5,623.166765760984 C 337.45,625.9347490287034 342.85,629.4505862053719 344.5,630.9797372646917 C 348.94021009799627,635.0947384616331 351.27253559693,636.0 357.4342585459108,636.0 C 360.49541634565986,636.0 363.0,636.4354222659775 363.0,636.9676050355057 C 363.00000000000006,637.4997878050339 365.40249139185,639.7491086735189 368.33886975966664,641.9660958543615 C 372.8932201660178,645.4046637782402 374.6198220155507,646.0829894368994 380.0888697596666,646.5822883433261 C 383.61499139184997,646.9042070314141 388.60842166403364,648.0298861629291 391.1853814756304,649.0837975244704 C 394.02804188423556,650.2463737075178 398.2559263315431,651.0 401.9353814756304,651.0 C 407.11973256015244,651.0 408.0,651.2625539724763 408.0,652.8088703649005 C 407.99999999999994,653.8037490655959 407.3393115173409,655.4912490655959 406.53180337186876,656.5588703649005 C 405.72429522639663,657.6264916642052 405.0463300838304,659.85 405.02521416616617,661.5 C 405.00409824850186,663.15 404.1916236399636,665.7057439188005 403.2197150360812,667.1794309306679 C 400.94920044547683,670.62217014407 394.3423916247971,675.8759611160552 391.3340624701983,676.6310036704954 C 389.7309635474227,677.0333558877793 389.00000000000006,677.9405522580066 389.0,679.5278006562189 C 388.99999999999994,681.7071823649196 388.7907777294069,681.781016199109 385.32599669520897,680.8243440406691 C 382.0274152008644,679.9135617872344 381.46300493750715,680.0495276500195 379.802489229389,682.1549514143253 C 378.38086795373545,683.9574728857999 378.080420163075,685.5410752377644 378.5038174245776,689.0 C 379.0405611420823,693.3849035037741 379.0091911435643,693.4483455518501 377.27732489039767,691.4804335987911 C 376.29979620067894,690.3696720781263 373.73089093058354,688.9242458065925 371.5686465124078,688.2683752176049 C 368.0782313807382,687.2096324552346 367.20544871492314,687.3185933158259 363.7870209607298,689.2398571799768 C 359.63412164154647,691.5739171534883 357.6974718506694,695.6855251035497 360.1086735018755,697.0491796120227 C 364.93033472920797,699.7760689485879 370.00000000000006,704.2846356133344 370.0,705.8457574011911 C 370.0,706.854024308197 371.0125,708.1948193210812 372.25,708.825301874267 C 373.4875,709.4557844274527 375.7730723211887,710.9905161865914 377.3290496026416,712.2358168945751 C 379.71505708555605,714.1454185598085 381.3594051566508,714.5 387.8290496026416,714.5 L 395.5,714.5 L 397.7404783879814,718.9425689463674 C 398.9727415013711,721.3859818668693 401.3352415013711,724.7824051262861 402.9904783879814,726.4901761895156 C 404.6457152745917,728.1979472527452 406.00000000000006,730.5002828910842 406.0,731.6064776080468 C 405.99999999999994,732.7126723250093 406.6606884826587,734.4912490655926 407.4681966281305,735.5588703648984 C 408.3523038542724,736.727764710785 408.94904552101946,739.7875097225303 408.96819662813056,743.25 L 409.0,749.0 L 413.84501243788793,749.0 C 417.4200331677011,749.0 419.1644619239887,748.4757529627196 420.5,747.0 C 423.5086959853475,743.6754283580144 427.08776748389727,744.495141087654 430.4897697391251,749.2879513372804 C 432.13414309564394,751.6045781017762 434.02491983449556,754.7375 434.6914958254621,756.25 C 435.983269863832,759.1811110203679 438.639097438679,759.7987004646798 442.06574145408933,757.964816241512 C 444.7712320588194,756.5168816111187 444.4824305163592,755.4424699498979 441.0,754.0 C 437.50284331090626,752.5514302696336 437.3353864350167,751.911442134145 439.856521980563,749.6298458230269 C 441.0196257014371,748.5772514221895 441.54470884964525,747.0691282644548 441.2623522895442,745.5920753250496 C 440.41658902537256,741.1677505814039 444.6660531279102,741.1389803780972 447.0283847970892,745.5530374785089 C 447.96486620439754,747.3028689942375 449.1812015514147,748.0 451.2977789039551,748.0 C 453.28756479737854,748.0 455.55422630631955,749.1714254059771 458.2139402128156,751.574317134286 C 460.5179439966375,753.6558461365659 462.7845327261535,754.9129241540596 463.64103784213574,754.5842523023957 C 465.8215854326632,753.7474976807981 471.6671247659436,756.5094998439001 473.0045397863779,759.0084826684403 C 473.6455772074362,760.2062720461847 473.90435819495593,762.2449312938893 473.5796086475329,763.5388365522282 C 473.10174464926564,765.4427983746087 473.8266094245215,766.5914167937893 477.38101332728337,769.5625303265322 L 481.7728717296212,773.2336690856747 L 480.1364358648106,776.0976814977325 C 478.87891549180057,778.2985339931852 478.7578860060917,779.3713399647148 479.61374150314083,780.7308469548952 C 480.54385901825185,782.2083174716386 481.8797675676394,782.4431561898516 487.71647803455846,782.1552230934626 L 494.70547306283527,781.8104461869252 L 499.41937943450955,786.1552230934626 C 502.01202793893043,788.5448503920582 507.2454116282127,793.570327012774 511.04912096624804,797.3229489172757 C 516.9576370605225,803.1521080217216 518.2952297702344,804.0265577545016 520.2324780631561,803.326558312803 C 521.4796151284203,802.8759215758413 524.6157672333567,802.6126921188165 527.2017049630149,802.7416039638589 C 530.9281098063336,802.9273693510984 532.1923304579825,802.5634972955393 533.2962315524869,800.9874577118751 C 534.6177358724376,799.1007460050074 534.7672395718298,799.0885598562184 536.2160275451979,800.7494631435434 C 537.0558634466374,801.7122584145945 538.2853379740333,803.5474016595559 538.9481931616331,804.8275592434577 C 539.6110483492328,806.1077168273595 540.7459690357645,806.9277224305595 541.4702391317034,806.6497939172355 C 542.1945092276422,806.3718654039114 543.7349977349841,807.153466793971 544.8935469257962,808.3866858951453 C 547.2238856980539,810.8672178474754 547.7357070510976,816.7568017086292 545.9163581919529,820.1562861479267 C 544.1207125916869,823.5114806428776 546.7479885718827,830.6529727614816 550.3227047874598,832.1336686996085 C 552.5668928376244,833.0632418265025 553.6620870129519,833.0676133945001 555.1268641338993,832.1528449422581 C 556.1703795901707,831.5011587538456 558.1618604632558,831.2535043570766 559.5523771851997,831.6025018383269 C 561.2600547635533,832.0311016273319 562.7083308315969,831.6689445317686 564.0147716560069,830.486631835042 C 565.4972244430983,829.1450305013058 566.89322937616,828.887216694797 569.9920837162356,829.3827434902071 C 575.7375797397241,830.3014853606272 578.9023008606895,829.3424018336368 578.2577885588792,826.877783005371 C 577.8802267249697,825.4339843345407 579.6293490226419,822.9710656841205 584.8722452814063,817.5640438540327 C 590.623455736679,811.632795371077 592.0,809.609062175367 592.0,807.0851408363433 C 592.0,802.7592449734414 588.6074579409504,801.2018186197707 582.9055928037116,802.9101389669547 C 580.6504246680381,803.5858037748316 578.5685051356633,803.9018384689972 578.2791049539896,803.6124382873228 C 576.9641196134231,802.2974529467529 579.2470143697884,800.0105740837837 582.8406826790424,799.0428996994717 C 590.8211859219585,796.8939733385712 598.1995362939688,802.0845307141518 596.5435173615399,808.6826356894312 C 596.1935583067718,810.0769836254308 593.5856086461773,813.6725840796514 590.7480736713298,816.6728589210325 C 584.9423416251996,822.8115645046494 585.2561417207664,823.9576868108729 592.75,823.984687225483 C 596.328229075161,823.9975796054825 597.0,824.3161274940419 597.0,826.0 C 597.0,827.5959595959596 596.3333333333334,828.0 593.7000000000005,828.0 C 590.0228728000468,828.0 588.0,829.4905378526659 588.0,832.1999999999996 C 588.0,834.7417483835088 591.4563069499654,834.4951242084837 597.5,831.5221291694702 C 603.7849130919785,828.4304739036595 608.9613724710279,828.3452527240235 614.0295246748879,831.25 C 617.3264545174326,833.1395936021661 618.2391825940551,833.295123785745 619.7276426459987,832.2209675387443 C 620.7024391906994,831.5174996850536 622.2875,830.6775155712711 623.25,830.3543361747832 C 624.2125,830.0311567782953 625.0,829.3995458376111 625.0,828.9507563065961 C 625.0,828.501966775581 625.8498282210385,827.8650503416651 626.8885071578632,827.5353864534496 C 627.9271860946878,827.2057225652342 629.975370956511,825.8253981134834 631.4400290730257,824.4679987828926 C 632.9046871895403,823.1105994523017 635.0022059355997,822.0 636.1011818420467,822.0 C 637.2001577484937,822.0 639.449463253645,821.3018137134334 641.0996385201611,820.4484749187408 C 644.9425293150289,818.4612388562639 647.312478718008,819.2380931741961 653.1381110428026,824.3946095276767 C 657.7637583862648,828.4889678465976 657.7718407313101,828.5075114196665 656.1457906074636,831.2952213504825 C 654.6239462592958,833.9042802843531 654.6368192158875,834.3020746908668 656.3390775434832,837.2680886908751 C 657.4808198302359,839.2574598409595 657.7634123042462,840.5788625652513 657.0947771608792,840.8017409463736 C 654.6512384247617,841.6162538584128 651.728449360307,844.7516048409349 652.3999080265603,845.8380477849737 C 652.7948773057645,846.4771215032381 653.5414763412812,847.0 654.0590169943749,847.0 C 655.8138811656581,847.0 659.0,843.0113415808343 659.0,840.8144512213676 C 659.0,839.6123993931197 659.9148534427122,837.6550855782677 661.0330076504717,836.4648649661409 C 662.8545659805282,834.5259049769201 663.5614713259204,834.3987913701457 667.8296432344483,835.2427142657086 C 673.7504024729415,836.4133944509414 677.3448367085305,838.937795005806 676.4417904975841,841.2910957089914 C 676.0015470245291,842.4383518096811 674.6708759156769,843.0 672.3930111958157,843.0 C 667.8285739994224,843.0 668.0267457162263,845.3976834721757 672.7989686342138,847.9116869760832 C 674.5149913046923,848.81568644981 675.9343097064615,848.8467541560216 678.3963459052081,848.0342089361973 C 682.9110891071831,846.5442093133786 687.2858366166462,848.4692412894339 684.0,850.5 C 682.2615901791688,851.5743963556502 682.913231277204,854.569856963974 685.3919454480604,856.8984880192061 C 686.7075154444935,858.1344018591498 688.5430963656997,861.1335552380135 689.4710141618518,863.5632733055701 C 690.7091318295527,866.8052381428097 692.2681757600191,868.6463026980334 695.3290687137915,870.4810107646526 C 701.2667957826743,874.0401014990204 705.1341091674587,873.7770750464585 709.877708069368,869.491518417238 M 555.1848652436688,826.25 C 555.4031997500033,825.0974517469025 556.6231361863229,824.3930191007285 558.7581894068794,824.1866415159118 L 562.0,823.8732830318237 L 562.0,813.3913284572557 L 562.0,802.9093738826878 L 558.5,803.5659778406018 C 555.4543402540378,804.1373470530755 555.0,803.9647383951552 555.0,802.2362908992579 C 555.0,800.2171593583408 558.2438367849122,799.0 563.625,799.0 C 565.9983333333333,799.0 566.0,799.0087719298245 566.0,811.5 L 566.0,824.0 L 569.0,824.0 C 571.3333333333334,824.0 572.0,824.4444444444445 572.0,826.0 C 572.0,827.8444788383187 571.3333333333334,828.0 563.4266758367894,828.0 C 555.8019809879833,828.0 554.8900333019326,827.8063643379622 555.1848652436688,826.25 M 735.21679497936,723.4392957062981 C 731.6864278575333,720.9665303200849 730.0,716.6276938076147 730.0,710.0175412959877 C 730.0,699.8060859983133 733.1361164589101,695.0 739.7993998541094,695.0 C 744.3011970179721,695.0 747.6213753028716,698.2532474354406 749.0047440420328,704.019775386133 C 750.9666178779784,712.197783165586 748.6438328345056,721.0985807119039 743.9088059955793,723.5471582524563 C 740.3023867080424,725.4121101460091 737.992457387678,725.3834453344396 735.21679497936,723.4392957062981 M 707.0,722.5 C 707.0,721.5 708.0,721.0 710.0,721.0 L 713.0,721.0 L 713.0,710.062870566386 L 713.0,699.1257411327721 L 709.5,699.6937129433613 C 706.7502347855572,700.1399384083736 706.0,699.9265538664084 706.0,698.6982300475324 C 706.0,697.0471761296999 707.177773718388,696.518200855571 713.25,695.4420266889761 L 717.0,694.7774182014842 L 717.0,707.8887091007421 L 717.0,721.0 L 720.5,721.0 C 722.9444444444445,721.0 724.0,721.452380952381 724.0,722.5 C 724.0,723.7156862745098 722.3888888888889,724.0 715.5,724.0 C 708.6111111111111,724.0 707.0,723.7156862745098 707.0,722.5 M 913.0,709.5 C 913.0,695.6666666666666 913.0919540229885,695.0 915.0,695.0 C 916.1,695.0 917.0,695.4755167858921 917.0,696.0567039686491 C 917.0,696.6489950958277 917.9767735054551,696.4292491427278 919.2225062434054,695.5567039686491 C 922.3519919639323,693.3647268457815 925.4469119758379,693.6201855434111 928.5979125375625,696.3305621208597 C 930.7833328404047,698.2103815257354 931.3850998331919,699.7092714362894 931.7093446455938,704.0805621208597 C 932.4057689787484,713.4693729316691 926.7423509527309,719.013414195381 919.9277324447694,715.6138347654633 L 917.0,714.1532894709743 L 917.0,719.0766447354872 C 917.0,723.3333333333334 916.7291819782042,724.0 915.0,724.0 C 913.0919540229885,724.0 913.0,723.3333333333334 913.0,709.5 M 743.8486868595077,719.25 C 746.6004409125328,714.0102995905223 745.9160276359067,702.4874562073353 742.65963799637,699.2310665677985 C 740.5797875886124,697.1512161600409 736.6097244414452,698.3663848093768 735.1714394619644,701.5230764834355 C 733.4411147584669,705.3207255327355 733.6818152896604,716.1007152048198 735.5567039686491,718.7774937565946 C 737.4787360676058,721.5215789686753 742.5052869826521,721.8080094547744 743.8486868595077,719.25 M 893.0,715.296531611837 C 888.534051101263,713.0041835051428 886.4905690666727,707.6055985340175 887.9862715191833,702.0509836854678 C 889.2872054379168,697.2196839507847 891.874218909537,694.9606858853264 896.8741125131274,694.2900594260179 C 900.3981335341456,693.8173890199604 901.2857433857246,694.1318972318785 903.9517285327101,696.797882378864 C 906.0285061866043,698.8746600327582 907.0,700.8267790186824 907.0,702.9230769230769 L 907.0,706.0 L 899.0,706.0 C 890.4496880468809,706.0 889.6270052464694,706.5947629147173 892.5012424762426,710.698311384336 C 894.3672567757542,713.3624199846034 898.486664503571,714.3210097571358 902.75,713.0832062023696 C 905.2952920920359,712.34421402076 906.0,712.4369280956624 906.0,713.510788666008 C 906.0,716.6845176212278 897.8777102691636,717.8002346666755 893.0,715.296531611837 M 940.5,715.805054507184 C 937.6998601823524,714.2171958522005 937.032895735784,712.9734203021752 937.015312774517,709.3067039686491 C 936.9950548474376,705.0821554993743 940.0348056602786,703.0 946.2225062434054,703.0 C 950.3502229025048,703.0 951.0,702.7250682685531 951.0,700.9785612088501 C 951.0,697.9248817466695 946.7696733191185,696.3813789565096 941.9362300381982,697.6714988279152 C 938.7427402538377,698.5238900509999 938.0,698.4606437748532 938.0,697.3363185402086 C 938.0,695.6756930995431 942.0227540740162,694.0 946.0093359598482,694.0 C 947.6111526479397,694.0 950.1332329783871,695.0706978038302 951.694218502765,696.4134010246429 C 954.2956977214428,698.6510992423686 954.5256372152534,699.4519321152953 954.8525983812924,707.4134010246429 C 955.1881821043117,715.5848282606895 955.1035684921563,716.0 953.1026161772011,716.0 C 951.9461772797405,716.0 951.0,715.5766864141793 951.0,715.0593031426206 C 951.0,714.541919871062 949.7625,714.7641475373533 948.25,715.5531424010458 C 944.9669295023156,717.2657544736496 943.1784189451281,717.323889629948 940.5,715.805054507184 M 553.0,714.5633584840882 C 553.0,713.6734774885134 554.2368929001524,713.0074582345852 556.25,712.8133584840882 L 559.5,712.5 L 559.7862376699177,702.1363634343691 L 560.0724753398353,691.7727268687381 L 556.5362376699177,692.1855626883294 C 553.4482183745291,692.5460715386168 553.0,692.3235591205488 553.0,690.4300416309356 C 553.0,688.7012446554143 553.7601837354284,688.1360341438399 556.75,687.6418480408564 C 564.4759582261895,686.3648260268764 564.0,685.5535206357791 564.0,700.0 L 564.0,713.0 L 567.0,713.0 C 569.0,713.0 570.0,713.5 570.0,714.5 C 570.0,715.7156862745098 568.3888888888889,716.0 561.5,716.0 C 554.7777179302591,716.0 553.0,715.6995360726834 553.0,714.5633584840882 M 578.0,714.5633584840882 C 578.0,713.6734774885134 579.2368929001524,713.0074582345852 581.25,712.8133584840882 L 584.5,712.5 L 584.7862376699177,702.1363634343691 L 585.0724753398353,691.7727268687381 L 581.5362376699177,692.1855626883294 C 578.4482183745291,692.5460715386168 578.0,692.3235591205488 578.0,690.4300416309356 C 578.0,688.7012446554143 578.7601837354284,688.1360341438399 581.75,687.6418480408564 C 589.4759582261895,686.3648260268764 589.0,685.5535206357791 589.0,700.0 L 589.0,713.0 L 592.0,713.0 C 594.0,713.0 595.0,713.5 595.0,714.5 C 595.0,715.7156862745098 593.3888888888889,716.0 586.5,716.0 C 579.7777179302591,716.0 578.0,715.6995360726834 578.0,714.5633584840882 M 860.0,701.5 L 860.0,687.0 L 862.3476596172821,687.0 C 864.322157730709,687.0 865.6013213950667,688.743746424371 870.3952230654991,697.9703788332453 C 873.5301701725132,704.0040871915302 876.5237233447363,709.2056448389989 877.0475634482169,709.5293958276202 C 877.6298301003687,709.8892564091656 878.0,705.6255560881132 878.0,698.5590169943749 C 878.0,688.9510018882639 878.2531792135802,687.0 879.5,687.0 C 880.764367816092,687.0 881.0,689.2777777777778 881.0,701.5 L 881.0,716.0 L 878.540592270299,716.0 C 876.424502531407,716.0 875.2030570657773,714.3597732318686 869.790592270299,704.25 L 863.5,692.5 L 863.2182646875465,704.25 C 862.989591962804,713.786981687973 862.6599934907999,716.0 861.4682646875465,716.0 C 860.2447515265671,716.0 860.0,713.5829309488105 860.0,701.5 M 962.0,701.0 C 962.0,686.6666666666666 962.0888888888888,686.0 964.0,686.0 C 965.9111111111112,686.0 966.0,686.6666666666666 966.0,701.0 C 966.0,715.3333333333334 965.9111111111112,716.0 964.0,716.0 C 962.0888888888888,716.0 962.0,715.3333333333334 962.0,701.0 M 926.0,712.0 C 930.3981251853128,707.6018748146872 928.0471616429047,697.0 922.673753109472,697.0 C 919.0120838250873,697.0 917.0,699.8920043313342 917.0,705.1549875621121 C 917.0,710.2036183793924 919.3606636010935,714.0 922.5,714.0 C 923.325,714.0 924.9,713.1 926.0,712.0 M 949.75,711.2541372543667 C 950.4375,710.3541191658496 951.0,708.5194979676058 951.0,707.1772012582693 C 951.0,704.9032037324316 950.7243645005994,704.7736322652581 946.9607814519068,705.2784346819426 C 940.4279836493587,706.1546667394717 938.2525534372942,709.1096962944372 941.6437561135577,712.5008989707005 C 943.5744666367608,714.4316094939036 947.8218161608313,713.7783559208948 949.75,711.2541372543667 M 903.108346860558,700.75 C 902.0889133670922,697.9771370394561 897.5663374751337,696.1529932077331 895.282588883458,697.5935448108528 C 894.3960583789844,698.1527538867067 893.0149168830974,699.5979736534779 892.2133855592646,700.8051442925664 C 890.7624709269554,702.9903384226872 890.7850634166786,703.0 897.3458037357294,703.0 C 903.7580473588096,703.0 903.9132696556704,702.9393930491501 903.108346860558,700.75 M 550.25,598.3904916213503 C 549.5625,598.084054562941 549.0,597.156279309409 549.0,596.3287688357237 C 549.0,595.1360365068145 549.8016675299772,594.9596451978724 552.8679797197217,595.4776953168268 C 556.0585175726853,596.0167332268556 557.1903401916501,595.7256309776873 559.3303304413089,593.8155931477697 C 560.757234492335,592.5420169164963 562.2125140773069,590.2741069324228 562.5642850745799,588.7757931831617 L 563.2038687059853,586.0515863663234 L 560.0932866016442,587.6033490841679 C 556.358405999725,589.466552908806 551.9870239593009,588.7481305417024 549.3536923116526,585.8383318241347 C 546.4742548841186,582.6565892808296 546.7837725727159,574.4032595410389 549.8764487719478,571.8989622844596 C 553.2311372780065,569.1825003333225 556.5534069811853,568.5723744276265 560.0665694980237,570.0275739889219 C 567.6710008674809,573.1774325962864 569.2647218173761,589.6448738264542 562.5735012717589,595.930949140474 C 560.1654431985016,598.1932022385196 553.010928205539,599.6211108472187 550.25,598.3904916213503 M 559.7774937565946,584.4432960313509 C 561.4259212769954,583.2886924523274 562.0,581.8826759590615 562.0,579.0 C 562.0,575.1130538527584 559.4550756987903,572.0 556.2774937565946,572.0 C 553.9666310839874,572.0 551.0,575.9349014031447 551.0,579.0 C 551.0,582.0650985968553 553.9666310839874,586.0 556.2774937565946,586.0 C 556.9801153227216,586.0 558.5551153227216,585.2994832141079 559.7774937565946,584.4432960313509 M 358.1273007579367,544.9039718392812 C 355.028758764285,542.0172408511365 353.9993606876176,538.8420768727872 354.0037380604375,532.1849003388254 C 354.00834284139336,525.1818779818408 356.5868908489829,520.4883814101601 361.5745750496485,518.4043938875095 C 366.0375089826833,516.5396610261914 372.0,517.4319132612425 372.0,519.9644983281355 C 372.0,521.4400420068384 371.27340615006574,521.636598388563 367.24851788324486,521.2498575873457 C 361.8657389465387,520.7326406857193 359.6773753807741,522.2869618900698 358.4488026773985,527.5 C 357.8663671111224,529.9713708803996 357.97598524076614,530.2797378668332 359.07089173140275,529.25 C 361.3804361657473,527.077919206328 368.371479045445,527.7020676595337 370.8103008816456,530.2980745417753 C 375.1338221361644,534.9002520217565 374.20270831508657,543.2155950096152 369.0553910055793,545.9703556334478 C 365.83631667097035,547.6931519346958 360.5694753328901,547.1792035574314 358.1273007579367,544.9039718392812 M 127.0,543.0 C 127.0,541.4444444444445 127.66666666666667,541.0 130.0,541.0 L 133.0,541.0 L 133.0,530.3691576230246 L 133.0,519.7383152460493 L 129.5,520.3062870566387 C 126.57866768418901,520.7803540294227 126.0,520.5746529407136 126.0,519.062129433614 C 126.0,517.2301770554534 129.4649995479659,516.0 134.625,516.0 C 136.99833333333333,516.0 137.0,516.0087719298245 137.0,528.5 L 137.0,541.0 L 140.0,541.0 C 142.33333333333334,541.0 143.0,541.4444444444445 143.0,543.0 C 143.0,544.8333333333334 142.33333333333334,545.0 135.0,545.0 C 127.66666666666667,545.0 127.0,544.8333333333334 127.0,543.0 M 151.25,544.391110382596 C 150.5625,544.0843330055015 150.0,542.9942421130182 150.0,541.9686861770776 C 150.0,540.3276815326168 150.36282677140872,540.2305211145087 153.0251131687375,541.1585991508148 C 160.51540837005967,543.7697301203347 167.1806033439816,538.9769666676578 163.61879759476085,533.5409639961208 C 162.36413568977747,531.6261078957125 161.09715463524265,531.0 158.47694702014576,531.0 C 156.05299411334954,531.0 155.0,530.5457246944309 155.0,529.5 C 155.0,528.6057458066663 155.9197215285105,528.0 157.27749375659457,528.0 C 160.33844163533234,528.0 164.0,525.3124490200747 164.0,523.0657407467932 C 164.0,519.9560609488021 161.39652888138497,518.7074400681664 155.9948331774811,519.2264746316055 C 151.62589482351552,519.6462742899986 151.0,519.4741922998801 151.0,517.8532074288777 C 151.0,514.5961349354337 162.16326591673317,514.8653010900961 165.72158792058337,518.2081710426323 C 168.55001633388488,520.8653415700593 168.64045723744067,524.3595427625594 165.95043107224365,527.0495689277564 L 163.90086214448726,529.0991378555127 L 166.1522300966194,530.9221850233589 C 167.8135286251818,532.2674229595098 168.3757067564249,533.7291908522958 168.297180804984,536.4994565372165 C 168.13970012800138,542.0551143481415 165.38447483359923,544.3010555397792 158.28884168996075,544.6578242481908 C 155.10497876048234,544.8179089992082 151.9375,544.6978877596905 151.25,544.391110382596 M 367.5088703648951,542.6171722488839 C 369.7464903555046,540.9809845640058 370.08511112406137,535.012405205232 368.0775552845578,532.5934484010793 C 366.5204438203763,530.7172438656991 361.9128830399766,530.4871169600234 360.20000000000005,532.2 C 358.29087604189925,534.1091239581007 358.6811002127062,541.7148776982995 360.75,542.9199012005281 C 363.17843666798683,544.3343357113583 365.28984094006915,544.239766180168 367.5088703648951,542.6171722488839 M 625.4545454545455,538.5454545454545 C 622.232887608444,535.3237966993531 622.2078433256289,530.701247583462 625.3947803589099,527.5143105501811 C 627.7364580719895,525.1726328371013 627.7475452361281,525.0815067029242 625.8947803589099,523.4047775335235 C 623.4916738618601,521.2299960432628 623.4102522837131,515.8224418323583 625.75,513.7892965112039 C 629.8379631848946,510.23702326201374 638.8376506986086,510.9596133718623 641.0076767800105,515.0143441946598 C 642.5639128287901,517.9221978507128 642.1757617725527,521.5309626577208 640.1052196410901,523.4047775335235 C 638.2524547638719,525.0815067029242 638.2635419280105,525.1726328371013 640.6052196410901,527.5143105501811 C 643.2302975338913,530.1393884429822 643.5899315203689,532.6111353075639 641.8897281822362,536.3426751611105 C 639.5467251231472,541.4850067257424 629.712201929973,542.8031110208822 625.4545454545455,538.5454545454545 M 637.6674594734608,535.3847685897528 C 639.2022236195118,533.0424224357163 639.2274238955973,532.4946133242576 637.9089696029591,530.1347685897528 C 635.1837964693271,525.2570981950151 627.0,526.9011226109991 627.0,532.326246890528 C 627.0,537.866014732037 634.6117237040305,540.0484108475508 637.6674594734608,535.3847685897528 M 636.0657414540893,522.9648162415119 C 638.3351273747751,521.7502777550196 638.6234278868766,517.7622886224118 636.5653240877673,516.0542141776291 C 635.7762523360393,515.3993427883387 633.6387523360393,515.0067426663898 631.8153240877673,515.1817694621869 C 628.9756436802176,515.454344027867 628.4518251327232,515.9233297450481 628.1642122989322,518.4506863208705 C 627.6477465985122,522.9890546785618 631.6974605401314,525.3026492391755 636.0657414540893,522.9648162415119 M 811.4746305768742,443.25 C 814.5581894090836,435.41357273699487 820.0,420.88605444377856 820.0,420.49057863064445 C 820.0,420.22076038379 817.075,420.0 813.5,420.0 C 807.6666666666666,420.0 807.0,419.79487179487177 807.0,418.0 C 807.0,416.1392758994266 807.6666666666666,416.0 816.5733241632106,416.0 C 823.9069980457318,416.0 826.0710076147369,416.30282226842206 825.8233241632106,417.2944055437757 C 825.6454958734447,418.0063285928524 823.25,424.526853642915 820.5,431.7844612105814 C 816.0406414199845,443.5532883295847 815.2451428452036,444.98118659729516 813.1430111958157,444.9900556668057 C 811.3009706094984,444.997827390335 810.9364675516466,444.61766497165047 811.4746305768742,443.25 M 296.0,405.5 L 296.0,402.0 L 289.5,402.0 C 281.17366283874077,402.0 281.1447265616596,401.31109992319347 288.96324116472636,389.2211203324737 C 293.9024759252172,381.5834486672339 295.3620939744567,380.0 297.46324116472636,380.0 L 300.0,380.0 L 300.0,389.5 C 300.0,398.3333333333333 300.140350877193,399.0 302.0,399.0 C 303.1111111111111,399.0 304.0,399.6666666666667 304.0,400.5 C 304.0,401.3333333333333 303.1111111111111,402.0 302.0,402.0 C 300.3809523809524,402.0 300.0,402.6666666666667 300.0,405.5 C 300.0,408.3333333333333 299.6190476190476,409.0 298.0,409.0 C 296.3809523809524,409.0 296.0,408.3333333333333 296.0,405.5 M 295.99571875898584,391.75 L 295.9914375179717,384.5 L 292.94553743118445,389.0 C 291.2702923834515,391.475 289.2356628761036,394.7375 288.424138525967,396.25 L 286.9486397075368,399.0 L 291.4743198537684,399.0 L 296.0,399.0 L 295.99571875898584,391.75 M 107.25,381.3437773191217 C 105.86989309902613,381.0475884519498 105.0,380.12194568180195 105.0,378.94957941691456 C 105.0,377.2612734764532 105.52198017561125,377.1098060817258 109.47360305252553,377.65143624774765 C 115.27331923199331,378.44637577892513 119.0,376.2544853397102 119.0,372.04837559157437 C 119.0,367.55422351363103 116.52618715429008,365.7698784291756 110.84204725050924,366.16409743649183 L 105.99875677089193,366.5 L 105.99937838544597,359.25 L 106.0,352.0 L 113.5,352.0 C 120.33333333333333,352.0 121.0,352.1777777777778 121.0,354.0 C 121.0,355.75757575757575 120.33333333333333,356.0 115.5,356.0 C 110.05555555555556,356.0 110.0,356.030303030303 110.0,359.0 C 110.0,361.65604382752497 110.33856144679176,362.0 112.95294697887417,362.0 C 119.56478251655524,362.0 123.48011252660704,366.04592796740064 123.29195343160431,372.6838696239766 C 123.15093109011691,377.65890458071624 119.74322007881668,380.852195515272 113.99120289115704,381.3993981083132 C 111.52104130102067,381.63439024815824 108.4875,381.60936089302203 107.25,381.3437773191217 M 150.22507435385933,376.04735281025523 C 144.55657863596798,372.50204395533433 143.40525785058657,366.0486939256435 147.56028091815836,361.11072957218545 C 150.58944207455949,357.5107760778406 155.70773008212126,356.2220835866485 159.96791712766907,357.98671083916065 C 166.48859195657934,360.6876627891201 168.2076193073768,369.5107840637328 163.15609860484136,374.3504480452708 C 159.30938759233106,378.0358310875076 154.42848721862086,378.67633898083506 150.22507435385933,376.04735281025523 M 152.99230154498574,373.7727348595596 C 154.51095084101485,372.82432267714694 155.65961716144346,372.81050240611114 158.04771907768895,373.7119101977246 C 161.08253933323397,374.857426896943 161.1325595201655,374.82674379788097 160.8362005324517,372.0014157362298 C 160.6310002808218,370.0451463021214 161.30473902922077,368.30452261088277 162.9415281820197,366.5622403980647 L 165.34862805341896,364.0 L 162.92431402670948,363.98468722548296 C 159.88335445073926,363.96547951237756 158.6362361013579,363.1388369154772 157.01806893336467,360.0697790819901 C 155.7752418892832,357.7126010655566 155.6966272805944,357.69757302818044 154.40247094405882,359.5697790819901 C 151.79235693808562,363.3457303369966 150.889094608086,364.0 148.28625939537537,364.0 L 145.65137194658104,364.0 L 148.0584718179803,366.5622403980647 C 149.71670819930281,368.3273521394797 150.36970361105327,370.0384357735076 150.15741934643808,372.0622403980647 C 149.81379499560865,375.3381711486538 150.1554997166072,375.54434692309485 152.99230154498574,373.7727348595596 M 561.0,349.32571022679593 C 561.0,348.4048508515337 564.15,344.4028116839056 568.0,340.432289854289 C 575.7065240078216,332.4845179572709 576.8064988885991,329.22976949266894 572.6961904426867,326.53659196161675 C 570.4503768853588,325.06507840220445 568.2144151107424,325.28229661701937 562.75,327.502840023948 C 561.4082205414472,328.04809133993683 561.0,327.7167090857075 561.0,326.0822379571206 C 561.0,323.52033697583323 564.4047391035582,322.0 570.1420227380977,322.0 C 573.2428100221706,322.0 574.8176412456581,322.66379509181195 577.0769230769231,324.9230769230769 C 581.7139957784347,329.56014962458846 580.9113748037613,332.5222516246366 572.5174442336779,341.75 L 566.8321931920386,348.0 L 573.4160965960193,348.0 C 578.6017885106688,348.0 580.0,348.3185522486142 580.0,349.5 C 580.0,350.7280701754386 578.2777777777778,351.0 570.5,351.0 C 562.2826984520208,351.0 561.0,350.77393590522917 561.0,349.32571022679593 M 426.25,337.2942669930909 C 424.8912209626995,337.0325547372203 424.0,336.1338118005563 424.0,335.0252768187924 C 424.0,333.3929986927279 424.6486179732203,333.2484701586842 429.8552105489283,333.7205874144081 C 435.1749589667333,334.20296528201266 435.8608379714021,334.03676911593976 437.3552105489283,331.9032533991344 C 438.2598447470177,330.6117071618645 439.0,329.01225817986443 439.0,328.34892232802315 C 439.0,326.0790526190018 435.85845256559867,324.0 432.42857142857144,324.0 C 429.6666666666667,324.0 429.0,323.6111111111111 429.0,322.0 C 429.0,320.4746866747562 429.6666666666667,320.0 431.80887036489514,320.0 C 437.927458566169,320.0 440.0773609122464,314.7622461948542 434.96460353928796,312.31176547513485 C 433.29192818743684,311.5100730807842 431.2094816665056,311.3889126878696 428.7268323479035,311.94884100103053 C 425.5007423652258,312.67644240190947 425.0,312.54918024985807 425.0,311.0016778731114 C 425.0,308.78092122159234 426.93740466600303,308.0 432.4469287764345,308.0 C 438.2782256763291,308.0 442.0,310.9468948593992 442.0,315.56410626543106 C 442.0,317.79004233530617 441.36355069533784,319.38052140201665 440.1760538716529,320.1221254425966 C 438.44394577658176,321.20384485136094 438.4691214196144,321.37821232870533 440.6760538716529,323.5851447807438 C 441.9542242422438,324.8633151513347 443.0,327.08412910888563 443.0,328.5202869086348 C 443.0,335.7114210134083 436.28748183880657,339.2275703067135 426.25,337.2942669930909 M 302.0,197.5 C 302.0,196.5 303.0,196.0 305.0,196.0 L 308.0,196.0 L 308.0,185.38650064100676 L 308.0,174.77300128201355 L 305.0,175.2133077909241 C 302.664495276688,175.55608710134598 302.0,175.27481305580994 302.0,173.9434385138783 C 302.0,172.13167508877666 304.71086378673846,171.03619303507912 309.25,171.01365468329243 L 312.0,171.0 L 312.0,183.5 L 312.0,196.0 L 315.5,196.0 C 317.94444444444446,196.0 319.0,196.45238095238096 319.0,197.5 C 319.0,198.7156862745098 317.3888888888889,199.0 310.5,199.0 C 303.6111111111111,199.0 302.0,198.7156862745098 302.0,197.5 M 695.4486605453244,134.44854095407018 C 691.1420702263238,132.32312171624406 688.8439542960032,127.90991368405295 688.7877690253398,121.65723675147996 C 688.7303094236026,115.26274363799172 690.9615258618226,110.58837614003602 695.0904379718559,108.45323270717734 C 701.0491235886878,105.3718766201024 712.0,107.11639951307154 712.0,111.14700048979124 C 712.0,112.93391276733088 711.818043764944,112.95726706645254 709.0496599268843,111.5256801462316 C 706.02065673125,109.9593217184146 700.4175343632584,109.51881061884386 697.5448023069628,110.62118134222402 C 694.9454061919913,111.61866322339462 693.0,116.50104548703852 693.0,122.02726315003888 C 693.0,126.36015313670306 693.4525481672091,127.60639432105526 695.9230769230769,130.0769230769231 C 699.267168238066,133.42101439191217 703.7130529582789,133.91957776972777 708.3987811966398,131.47595378839827 C 711.5948737390404,129.80918013319143 712.557727853072,130.10420122162645 711.6491642932992,132.47187990537998 C 710.3043540057771,135.97639933851121 700.8755034742148,137.1268352675169 695.4486605453244,134.44854095407018 M 717.0,121.0 C 717.0,106.66666666666666 717.0888888888888,106.0 719.0,106.0 C 720.7642199352892,106.0 721.0,106.66666666666667 721.0,111.6549875621121 C 721.0,117.07010594148 721.0775702025028,117.23977505576862 722.828740671584,115.6549875621121 C 725.5650644838802,113.178648546073 731.5348585318152,113.49783004080791 733.4432960313509,116.22250624340543 C 735.6502442307244,119.37336616973849 735.6979143822135,136.0 733.5,136.0 C 732.3108648456082,136.0 732.0,134.5627888512416 732.0,129.06509966117451 C 732.0,119.80818577471832 730.878070599505,117.0 727.1797384091758,117.0 C 722.4247798812972,117.0 721.0,119.61191667358284 721.0,128.32874067158406 C 721.0,135.33333333333334 720.826191075513,136.0 719.0,136.0 C 717.0888888888888,136.0 717.0,135.33333333333334 717.0,121.0 M 742.6666666666667,135.33333333333331 C 742.3,134.96666666666667 742.0,130.01666666666665 742.0,124.33333333333333 C 742.0,114.66666666666666 742.1290322580645,114.0 744.0,114.0 C 745.8787878787879,114.0 746.0,114.66666666666666 746.0,125.0 C 746.0,133.49999999999991 745.6969696969697,136.0 744.6666666666667,136.0 C 743.9333333333334,136.0 743.0333333333334,135.7 742.6666666666667,135.33333333333331 M 753.0,125.07332416321053 C 753.0,114.66666666666667 753.1204094916469,114.0 755.0,114.0 C 756.1,114.0 757.0,114.4658326913196 757.0,115.03518375848799 C 757.0,115.74876210313866 757.6009252125773,115.74876210313866 758.9342585459107,115.035183758488 C 762.048681243016,113.36839531393092 766.8263410938333,113.82634109383326 769.0,116.0 C 770.7037037037037,117.70370370370371 771.0,119.33333333333334 771.0,127.0 C 771.0,134.33333333333334 770.7222222222222,136.0 769.5,136.0 C 768.3246597555902,136.0 767.978425271555,134.53903109984418 767.9003199746494,129.25 C 767.7567908257066,119.53068309617846 767.0258197684263,117.55318405052465 763.4607013012892,117.23948111256027 C 758.4068113326991,116.79477776092985 757.5485293171341,118.11816956081073 757.0,127.20128733539873 C 756.5861358014397,134.054480302092 756.1985246949612,135.53815914231208 754.75,135.8137273163478 C 753.1686482137336,136.1145645928992 753.0,135.0795075605818 753.0,125.07332416321053 M 779.2225062434054,134.44329603135094 C 777.6732907126409,133.35818323484483 777.0,131.8654603087418 777.0,129.51587618038383 C 777.0,124.92175466406552 780.7454972174576,122.0 786.6348586918014,122.0 C 789.6758741446038,122.0 791.0,121.58213115206722 791.0,120.62244471544217 C 791.0,117.94730683502844 788.1362678337754,116.73244785953997 782.994833177481,117.2264746316055 C 779.4169715527347,117.57026183255859 778.0,117.35287825764632 778.0,116.46019623306202 C 778.0,113.40431347394806 788.5369574179344,112.99504728675782 792.1392160376902,115.91101464220209 C 794.2489865191433,117.61883812207607 794.537160837363,118.78842768787534 794.8494979973707,126.91101464220209 C 795.129774656549,134.199841675747 794.9218123630633,136.0 793.7994979973706,136.0 C 793.0297740988168,136.0 791.86,135.46 791.2,134.8 C 790.2666666666667,133.86666666666667 789.7333333333333,133.86666666666667 788.8,134.8 C 787.1121271604871,136.48787283951293 781.8624038020614,136.2923522572133 779.2225062434054,134.44329603135094 M 789.171259328416,131.34501243788793 C 790.1770666977872,130.43476927872626 791.0,128.63476927872628 791.0,127.34501243788792 C 791.0,125.28293735864864 790.5259984103693,125.0 787.0714285714286,125.0 C 784.8333333333333,125.0 782.4666666666667,125.67619047619047 781.5714285714286,126.57142857142857 C 779.7123388689898,128.4305182738673 779.6963904539157,128.56418328208008 781.0351837584881,131.06574145408933 C 782.3193905344331,133.4653037643753 786.6635937022697,133.61441863948622 789.171259328416,131.34501243788793 M 742.0,108.0 C 742.0,106.66666666666667 742.6666666666666,106.0 744.0,106.0 C 745.3333333333334,106.0 746.0,106.66666666666667 746.0,108.0 C 746.0,109.33333333333333 745.3333333333334,110.0 744.0,110.0 C 742.6666666666666,110.0 742.0,109.33333333333333 742.0,108.0" fill="black" /></svg>